<?xml version="1.0" standalone="no"?>
<!DOCTYPE svg PUBLIC "-//W3C//DTD SVG 20010904//EN"
 "http://www.w3.org/TR/2001/REC-SVG-20010904/DTD/svg10.dtd">
<svg version="1.0" xmlns="http://www.w3.org/2000/svg"
 width="394.000000pt" height="394.000000pt" viewBox="0 0 394.000000 394.000000"
 preserveAspectRatio="xMidYMid meet">
<metadata>
Created by potrace 1.11, written by Peter Selinger 2001-2013
</metadata>
<g transform="translate(0.000000,394.000000) scale(0.100000,-0.100000)"
fill="#000000" stroke="none">
<path d="M1855 3889 c-180 -19 -404 -111 -565 -233 -108 -81 -255 -234 -343
-356 -88 -125 -213 -374 -264 -530 -88 -265 -126 -507 -126 -800 0 -403 78
-749 245 -1080 92 -184 179 -308 308 -443 120 -126 236 -213 375 -282 325
-161 655 -161 980 0 139 69 255 156 375 282 123 128 213 256 299 423 150 292
227 581 252 940 30 434 -55 865 -243 1240 -92 184 -179 308 -308 443 -120 126
-236 213 -375 282 -133 66 -250 101 -386 115 -111 11 -109 11 -224 -1z m99
-81 c20 -117 26 -202 17 -211 -20 -20 -40 2 -47 54 l-7 51 -36 -6 c-20 -3 -44
-6 -53 -6 -14 0 -17 -9 -15 -57 2 -52 0 -58 -18 -58 -18 0 -21 11 -34 118 -10
86 -11 121 -3 129 19 19 42 -10 42 -54 0 -37 2 -40 23 -34 12 3 37 6 56 6 l34
0 -6 44 c-7 47 -3 56 24 56 13 0 20 -10 23 -32z m314 -33 c4 -16 -1 -17 -36
-12 l-41 5 -21 -95 c-14 -58 -28 -97 -37 -100 -31 -12 -34 13 -13 107 22 98
20 109 -23 110 -22 0 -35 29 -18 40 7 4 52 -3 99 -14 66 -17 88 -27 90 -41z
m-643 -39 c11 -8 16 -19 12 -30 -6 -14 -15 -16 -52 -10 -54 8 -85 -13 -85 -55
0 -35 34 -89 65 -103 21 -10 30 -8 53 9 14 11 29 31 32 44 7 28 37 38 46 15 4
-9 0 -30 -7 -47 -27 -68 -131 -92 -183 -44 -50 46 -69 125 -42 173 29 54 118
80 161 48z m853 -26 c36 -22 58 -60 48 -85 -9 -24 -39 -14 -46 15 -3 14 -18
31 -33 40 -24 13 -28 13 -43 -2 -15 -15 -13 -20 30 -66 53 -57 59 -90 21 -127
-29 -30 -46 -31 -100 -5 -46 22 -69 55 -63 91 5 35 36 37 44 2 9 -39 33 -63
61 -63 39 0 39 28 1 68 -35 37 -58 72 -58 90 0 5 9 21 21 36 25 32 70 35 117
6z m-1118 -215 c68 -34 110 -61 110 -70 0 -22 -24 -29 -51 -15 -19 11 -26 8
-56 -23 -30 -29 -33 -37 -24 -55 6 -11 8 -28 5 -37 -14 -36 -40 -6 -87 103
-46 109 -48 115 -31 133 9 10 19 19 21 19 2 0 53 -25 113 -55z m1367 28 c61
-28 94 -113 58 -143 -21 -17 -33 -4 -37 39 -2 23 -12 41 -30 54 -24 18 -30 18
-58 7 -93 -38 -91 -151 2 -154 26 -1 33 -5 33 -21 0 -16 -8 -21 -42 -23 -36
-3 -46 1 -77 33 -31 30 -36 42 -36 80 0 38 6 52 36 85 31 34 69 55 107 59 5 1
25 -7 44 -16z m-605 -8 c368 -77 685 -453 817 -968 50 -192 65 -320 65 -547 0
-228 -15 -358 -64 -546 -82 -318 -201 -537 -394 -729 -162 -161 -297 -231
-493 -256 -234 -30 -469 66 -668 272 -149 154 -256 338 -334 574 -229 690 -83
1523 344 1950 214 215 474 304 727 250z m-952 -235 c75 -50 91 -64 88 -83 -3
-21 -7 -22 -106 -20 -56 1 -100 -3 -97 -7 3 -5 33 -26 66 -46 38 -24 59 -43
57 -53 -6 -30 -35 -21 -126 38 -134 88 -124 121 34 107 43 -3 74 -2 74 3 0 5
-27 26 -60 46 -56 34 -70 52 -53 68 13 14 33 5 123 -53z m1768 -13 c2 -11 -9
-24 -32 -38 -34 -20 -35 -22 -22 -47 8 -15 21 -36 29 -46 14 -19 15 -19 51 4
35 21 39 22 54 6 16 -16 16 -18 -5 -34 -61 -46 -184 -114 -198 -108 -27 10
-16 34 25 57 22 13 40 27 40 32 0 8 -33 68 -47 86 -1 2 -21 -8 -44 -23 -43
-29 -73 -28 -67 1 4 20 176 133 198 130 8 -1 16 -10 18 -20z m170 -289 c2 -10
-22 -34 -63 -63 -36 -26 -65 -49 -63 -51 2 -1 39 2 82 8 65 9 79 9 87 -3 17
-27 9 -37 -61 -79 -39 -24 -69 -45 -67 -47 3 -2 40 1 83 6 80 10 101 5 91 -22
-4 -10 -29 -17 -84 -21 -142 -11 -164 -11 -173 4 -12 20 6 38 79 80 34 19 61
38 61 43 0 4 -19 4 -42 0 -24 -4 -65 -8 -93 -8 -79 0 -68 25 44 107 94 68 113
76 119 46z m-2240 -165 c19 -19 35 -26 55 -24 47 5 87 -9 87 -29 0 -16 -9 -19
-52 -22 -49 -3 -54 -5 -70 -38 l-18 -35 41 -14 c42 -14 59 -35 41 -53 -13 -13
-232 58 -232 76 0 25 40 130 57 148 23 26 60 22 91 -9z m2369 -209 c8 -21 -13
-42 -28 -27 -13 13 -5 43 11 43 6 0 13 -7 17 -16z m-88 -69 c57 -8 105 -16
106 -17 14 -17 12 -47 -2 -60 -37 -32 -185 -118 -204 -118 -27 0 -24 34 5 48
22 10 23 13 13 61 -8 44 -13 51 -33 51 -13 0 -28 8 -33 19 -20 36 -4 38 148
16z m-2435 -25 c0 -8 -4 -39 -8 -67 l-7 -53 30 0 c27 0 29 2 36 55 5 46 10 55
27 55 19 0 19 -4 13 -60 -7 -58 -6 -59 20 -66 34 -8 41 2 50 72 6 52 30 80 42
49 6 -16 -13 -165 -23 -174 -7 -7 -225 26 -234 36 -7 7 1 89 15 151 6 26 41
27 39 2z m2566 -131 c0 -12 -7 -19 -20 -19 -22 0 -29 35 -7 43 18 6 27 -2 27
-24z m34 -216 c11 -93 -4 -123 -62 -123 -21 0 -43 5 -49 11 -9 9 -21 8 -46 -5
-49 -22 -87 -21 -87 3 0 12 10 21 28 26 41 10 62 34 62 72 l0 33 -51 0 c-47 0
-50 2 -47 23 3 20 10 23 73 28 39 3 93 5 120 5 l50 -1 9 -72z m-2619 17 c4 -6
-5 -24 -19 -41 -30 -35 -33 -61 -10 -79 20 -18 37 0 61 65 20 55 49 73 97 61
36 -9 61 -62 52 -109 -8 -44 -41 -87 -67 -87 -29 0 -35 29 -10 47 30 20 44 59
31 84 -19 35 -40 21 -70 -46 -23 -51 -35 -66 -56 -71 -59 -15 -103 39 -90 110
11 56 62 97 81 66z m2568 -277 c52 -6 63 -18 53 -57 -5 -22 -14 -25 -96 -37
-49 -7 -90 -16 -90 -19 0 -3 37 -19 83 -36 78 -28 82 -31 85 -62 2 -22 -2 -34
-12 -38 -21 -8 -229 15 -241 27 -6 6 -4 14 5 23 12 11 30 12 89 5 41 -6 79 -8
84 -6 6 2 -27 17 -73 34 -128 46 -132 83 -12 98 31 3 68 9 82 13 22 5 21 7
-15 13 -22 5 -59 8 -81 8 -43 1 -71 21 -59 42 7 11 64 9 198 -8z m-2418 -36
c47 -40 43 -157 -6 -172 -40 -13 -52 20 -19 50 22 20 25 46 10 76 -24 43 -52
17 -64 -61 -4 -24 -14 -52 -23 -62 -16 -18 -68 -24 -89 -10 -35 23 -47 122
-17 154 33 37 65 13 38 -28 -21 -32 -16 -78 9 -82 21 -4 36 13 36 43 1 97 65
144 125 92z m70 -332 c14 -13 26 -37 27 -52 4 -88 -11 -105 -120 -128 -42 -9
-84 -19 -93 -21 -19 -5 -34 25 -21 38 6 6 47 18 92 28 85 19 100 29 100 66 0
41 -24 49 -103 36 -40 -7 -82 -15 -94 -18 -16 -4 -25 -1 -29 11 -10 24 4 33
76 49 101 22 137 20 165 -9z m2249 -16 c50 -12 94 -24 99 -28 4 -4 -1 -43 -11
-87 -13 -57 -22 -80 -35 -82 -20 -4 -23 32 -6 91 12 44 12 44 -20 49 -23 3
-26 -2 -39 -54 -8 -35 -20 -58 -27 -58 -24 0 -26 18 -11 75 10 40 11 55 3 55
-7 0 -22 3 -34 6 -22 6 -25 2 -47 -98 -7 -31 -46 -41 -46 -12 0 15 25 121 35
152 6 17 34 15 139 -9z m-2359 -68 c0 -15 -91 -45 -107 -35 -18 11 -6 34 20
40 15 3 32 7 37 9 21 8 50 -1 50 -14z m2254 -211 c58 -16 109 -34 114 -39 10
-10 -4 -79 -28 -138 -13 -30 -18 -33 -54 -33 -36 0 -71 19 -71 39 0 5 -22 6
-50 3 -53 -5 -83 9 -73 34 3 9 20 14 48 14 41 0 75 18 75 40 0 5 2 15 6 23 3
10 -8 18 -40 27 -43 12 -59 33 -39 53 8 8 -10 12 112 -23z m-2059 16 c0 -2 2
-11 5 -18 3 -8 -20 -46 -54 -88 -33 -41 -59 -75 -57 -77 1 -2 35 8 74 21 59
21 73 22 82 11 7 -8 9 -18 6 -23 -9 -14 -204 -84 -224 -80 -32 6 -23 36 38
112 33 42 56 76 51 76 -5 0 -39 -11 -75 -25 -68 -25 -86 -25 -86 0 0 18 8 23
109 61 77 29 131 41 131 30z m1827 -542 c3 -8 -1 -22 -9 -30 -12 -12 -17 -12
-33 -1 -23 17 -14 47 15 47 11 0 23 -7 27 -16z m-1629 -48 c-2 -13 -10 -21
-23 -21 -23 0 -33 34 -14 45 20 13 40 -1 37 -24z m1291 -130 c13 -16 6 -24
-56 -55 -44 -22 -48 -28 -37 -55 5 -13 10 -12 37 5 35 21 87 25 118 9 23 -13
49 -61 49 -90 0 -12 -13 -34 -28 -50 -48 -47 -152 -54 -152 -9 0 25 22 34 50
19 17 -9 26 -8 46 5 27 17 31 42 11 69 -20 27 -64 23 -97 -9 -23 -22 -32 -26
-44 -16 -22 18 -59 112 -48 123 9 9 121 66 133 67 4 1 12 -5 18 -13z m-849
-80 c0 -23 -109 -223 -124 -229 -8 -3 -22 0 -32 7 -16 12 -13 20 35 100 29 48
51 89 50 90 -2 2 -33 0 -69 -4 -71 -8 -80 -6 -80 15 0 17 68 30 173 34 35 1
47 -3 47 -13z m587 -51 c25 -17 32 -72 12 -92 -8 -8 -6 -13 8 -17 21 -7 43
-45 43 -75 0 -45 -82 -87 -152 -78 -69 9 -105 65 -73 114 16 24 16 26 -4 40
-28 19 -28 73 -1 98 39 36 120 40 167 10z m-336 -1 c42 -21 63 -73 49 -122
-20 -75 -162 -170 -206 -137 -16 11 -11 16 50 51 37 22 62 40 54 41 -104 14
-128 32 -128 92 0 32 6 44 31 65 36 31 102 35 150 10z"/>
<path d="M1270 3486 c0 -4 29 -72 36 -84 3 -6 54 30 54 37 0 4 -17 16 -37 26
-54 28 -53 27 -53 21z"/>
<path d="M1823 3475 c-82 -18 -213 -81 -289 -138 -436 -331 -649 -1075 -508
-1777 107 -536 413 -940 784 -1037 98 -25 255 -23 350 6 424 128 737 624 799
1265 61 621 -162 1254 -543 1543 -78 59 -208 120 -294 138 -83 18 -217 18
-299 0z m297 -409 c0 -8 -7 -19 -15 -26 -8 -7 -15 -27 -15 -46 0 -50 -16 -82
-52 -104 -36 -22 -82 -26 -122 -10 -18 6 -34 6 -51 -2 -38 -17 -56 5 -22 27
17 11 23 22 20 35 -3 11 -9 20 -13 20 -4 0 -36 -21 -70 -47 -47 -36 -72 -64
-98 -111 -64 -117 -97 -313 -54 -326 37 -12 46 -46 50 -184 l4 -132 95 -104
c52 -58 101 -107 109 -110 19 -7 54 -66 54 -92 0 -12 -9 -33 -21 -48 -17 -21
-29 -26 -66 -26 l-46 0 6 -42 c3 -25 15 -51 30 -66 24 -23 28 -24 71 -13 52
13 81 4 91 -29 9 -29 -11 -59 -48 -68 -27 -7 -33 -13 -35 -41 -6 -56 71 -157
163 -214 89 -54 256 -100 418 -113 48 -4 90 -11 93 -16 3 -5 -2 -18 -13 -30
-73 -81 -328 -148 -480 -127 -325 45 -675 304 -830 614 -78 155 -113 308 -113
494 1 391 141 686 402 844 141 85 385 127 489 83 9 -4 22 1 33 13 19 21 36 20
36 -3z m109 -254 c34 -67 67 -122 73 -122 5 0 57 27 115 61 72 42 108 58 115
51 7 -7 -2 -43 -31 -114 -22 -57 -41 -108 -41 -113 0 -6 50 -28 110 -50 82
-29 110 -43 108 -55 -2 -10 -50 -31 -138 -61 l-135 -46 -21 -159 c-26 -186
-21 -164 -37 -164 -7 0 -39 54 -72 120 -33 66 -62 120 -65 120 -3 0 -39 -18
-80 -40 -45 -24 -78 -36 -83 -31 -6 6 1 53 18 121 15 61 26 112 24 114 -2 2
-51 21 -109 42 -62 24 -106 46 -108 55 -2 10 32 29 114 64 78 34 119 57 124
70 4 11 10 72 14 135 4 63 10 118 13 123 12 20 32 -6 92 -121z m257 -912 c24
-58 51 -119 58 -137 l15 -31 141 55 c102 40 145 52 152 45 8 -8 -11 -39 -70
-112 -45 -55 -87 -109 -93 -118 -9 -15 -3 -47 31 -155 40 -130 45 -178 18
-161 -6 4 -58 43 -114 86 -56 43 -105 78 -108 78 -4 0 -47 -34 -97 -75 -86
-72 -119 -89 -119 -62 0 6 9 46 20 87 10 41 17 76 15 78 -2 3 -46 17 -97 32
-58 17 -93 33 -93 41 0 11 155 114 197 131 4 2 19 68 33 148 14 80 29 153 31
163 12 38 37 8 80 -93z"/>
<path d="M796 2768 c-8 -13 -18 -35 -21 -49 -5 -22 -2 -27 17 -33 40 -10 45
-7 56 34 8 32 7 44 -5 55 -20 20 -30 19 -47 -7z"/>
<path d="M3106 2463 c4 -16 8 -30 10 -32 5 -5 84 42 84 51 0 4 -23 8 -50 8
-50 0 -50 0 -44 -27z"/>
<path d="M3205 2178 c-2 -7 -1 -29 3 -48 6 -28 13 -36 34 -38 31 -4 41 17 32
64 -5 29 -10 34 -35 34 -16 0 -32 -6 -34 -12z"/>
<path d="M3059 1153 c-16 -42 -8 -68 23 -71 24 -3 28 2 39 38 11 35 10 43 -2
51 -26 16 -49 10 -60 -18z"/>
<path d="M2113 374 c-18 -8 -16 -39 3 -54 24 -21 69 -1 69 30 0 21 -5 25 -30
27 -16 1 -36 0 -42 -3z"/>
<path d="M2130 256 c-19 -24 -8 -61 19 -64 42 -6 71 6 71 31 0 13 -5 28 -12
35 -17 17 -63 15 -78 -2z"/>
<path d="M1786 358 c-20 -28 -20 -43 0 -62 34 -34 94 -9 94 39 0 45 -68 61
-94 23z"/>
</g>
</svg>
